<svg width="101" height="31" viewBox="0 0 101 31" fill="none" xmlns="http://www.w3.org/2000/svg">
<g clip-path="url(#clip0_531_436)">
<path d="M15.4117 0.342651C7.46792 0.342651 0.960253 6.48214 0.341858 14.2845L8.44696 17.6434C9.13373 17.1726 9.96338 16.8968 10.8559 16.8968C10.9359 16.8968 11.0156 16.9002 11.0945 16.904L14.6989 11.6674C14.6989 11.6424 14.6989 11.618 14.6989 11.5934C14.6989 8.44138 17.257 5.87703 20.4019 5.87703C23.5465 5.87703 26.1045 8.44138 26.1045 11.5934C26.1045 14.7453 23.5465 17.31 20.4019 17.31C20.3585 17.31 20.3154 17.31 20.2724 17.3066L15.1317 20.9832C15.1351 21.05 15.1368 21.1182 15.1368 21.186C15.1368 23.5523 13.2167 25.4766 10.8563 25.4766C8.78436 25.4766 7.0519 23.9943 6.65946 22.0313L0.862827 19.6307C2.6575 25.993 8.48901 30.6574 15.4117 30.6574C23.7636 30.6574 30.5338 23.871 30.5338 15.5005C30.5338 7.12871 23.7633 0.342651 15.4117 0.342651Z" fill="white"/>
<path d="M9.81809 23.3416L7.96051 22.5724C8.28971 23.2594 8.85922 23.8347 9.61537 24.1506C11.2501 24.8331 13.1347 24.0557 13.8159 22.4158C14.1458 21.6229 14.1479 20.7474 13.8207 19.9525C13.4943 19.1572 12.8783 18.537 12.0862 18.206C11.3003 17.8781 10.4584 17.8901 9.71861 18.1701L11.6374 18.9653C12.8431 19.469 13.4133 20.8567 12.9107 22.0652C12.4093 23.2741 11.0238 23.8456 9.81809 23.3416Z" fill="white"/>
<path d="M24.2011 11.5934C24.2011 9.49331 22.4967 7.78455 20.4012 7.78455C18.306 7.78455 16.6013 9.49331 16.6013 11.5934C16.6013 13.6938 18.306 15.4019 20.4012 15.4019C22.4967 15.4019 24.2011 13.6934 24.2011 11.5934ZM17.5529 11.5869C17.5529 10.0066 18.8311 8.72579 20.4077 8.72579C21.9843 8.72579 23.2624 10.0066 23.2624 11.5869C23.2624 13.1671 21.9843 14.4479 20.4077 14.4479C18.8311 14.4479 17.5529 13.1668 17.5529 11.5869Z" fill="white"/>
<path d="M46.6835 10.7134L45.6703 12.4986C44.8898 11.9521 43.8322 11.6231 42.9089 11.6231C41.8536 11.6231 41.2007 12.061 41.2007 12.8453C41.2007 13.7982 42.3605 14.0199 44.0845 14.6401C45.9376 15.297 47.0028 16.0689 47.0028 17.7702C47.0028 20.0977 45.1766 21.4049 42.552 21.4049C41.2728 21.4049 39.7297 21.0739 38.5435 20.3506L39.2826 18.3715C40.2462 18.8817 41.3989 19.1843 42.4265 19.1843C43.8117 19.1843 44.4701 18.672 44.4701 17.9148C44.4701 17.0482 43.4661 16.7878 41.8454 16.2499C39.9984 15.6317 38.7185 14.8207 38.7185 12.9379C38.7185 10.8145 40.4151 9.59503 42.8562 9.59503C44.5576 9.59503 45.9249 10.1354 46.6835 10.7134Z" fill="white"/>
<path d="M52.2182 21.2093V11.8418H48.7554V9.79071H58.0566V11.8418H54.604V21.2093H52.2182Z" fill="white"/>
<path d="M67.6515 14.4085V16.4596H63.0858V19.1394H68.3831V21.2093H60.7008V9.79071H68.3831V11.8356H63.0858V14.4085H67.6515Z" fill="white"/>
<path d="M73.7079 18.9924L72.9538 21.2096H70.4529L74.7242 9.79102H77.1257L81.5177 21.2093H78.9323L78.1618 18.992H73.7079V18.9924ZM75.9114 12.5147L74.3557 17.0866H77.4993L75.9114 12.5147Z" fill="white"/>
<path d="M89.2977 20.8766L86.2306 14.2639V21.2093H83.9461V9.79071H86.2255L90.0542 18.0333L93.7468 9.79071H96.046V21.2093H93.7618V14.2043L90.6442 20.8766H89.2977Z" fill="white"/>
<path d="M100.658 11.2312C100.658 12.2125 99.9246 12.8241 99.0826 12.8241C98.2376 12.8241 97.5023 12.2125 97.5023 11.2312C97.5023 10.2502 98.2376 9.6427 99.0826 9.6427C99.9249 9.6427 100.658 10.2502 100.658 11.2312ZM97.7672 11.2312C97.7672 12.0522 98.3572 12.5678 99.0826 12.5678C99.8053 12.5678 100.393 12.0522 100.393 11.2312C100.393 10.4078 99.8053 9.90003 99.0826 9.90003C98.3593 9.90003 97.7672 10.414 97.7672 11.2312ZM99.1045 10.4195C99.513 10.4195 99.6504 10.636 99.6504 10.87C99.6504 11.0845 99.5236 11.2285 99.3691 11.3018L99.7352 11.9895H99.4354L99.1267 11.3799H98.8084V11.9895H98.5589V10.4195H99.1045ZM98.8108 11.15H99.0891C99.2692 11.15 99.3756 11.0366 99.3756 10.894C99.3756 10.7501 99.2993 10.6576 99.0884 10.6576H98.8105V11.15H98.8108Z" fill="white"/>
</g>
<defs>
<clipPath id="clip0_531_436">
<rect width="101" height="31" fill="white"/>
</clipPath>
</defs>
</svg>
