<svg id="Layer_1" data-name="Layer 1" xmlns="http://www.w3.org/2000/svg" viewBox="0 0 2000 2000"><defs><style>.cls-1{font-size:113.18px;font-family:AkiraExpanded-SuperBold, Akira Expanded;font-weight:700;}.cls-1,.cls-6{fill:#fff;}.cls-2{letter-spacing:0.12em;}.cls-3{letter-spacing:0.07em;}.cls-4{letter-spacing:0em;}.cls-5{fill:#f04b23;}</style></defs><text class="cls-1" transform="translate(793.2 1342.11)">w<tspan class="cls-2" x="168.89" y="0">i</tspan><tspan class="cls-3" x="213.21" y="0">l</tspan><tspan class="cls-4" x="309.92" y="0">d</tspan></text><rect class="cls-5" y="-2000" width="2000" height="2000"/><polygon class="cls-6" points="1129.69 1094.98 1186.13 913.69 1067.93 1004.33 1000 765.09 932.07 1004.33 813.88 913.69 870.31 1094.98 707.3 958.72 801.41 809.56 785.36 583.47 948.97 736.57 1000 727.57 1051.03 736.57 1214.64 583.47 1198.59 809.56 1292.7 958.72 1129.69 1094.98"/><polygon class="cls-6" points="957.09 1127.79 961.96 1110.07 976.3 1146.06 957.09 1127.79"/><polygon class="cls-6" points="1000 971.67 1038.04 1110.07 961.96 1110.07 1000 971.67"/><polygon class="cls-6" points="1023.7 1146.06 1038.04 1110.07 1042.91 1127.79 1023.7 1146.06"/><polygon class="cls-6" points="987.45 909.72 987.46 909.72 987.45 909.72 987.45 909.72"/><polygon class="cls-6" points="1012.55 909.72 1012.55 909.72 1012.54 909.72 1012.55 909.72"/></svg>