<svg id="Layer_1" data-name="Layer 1" xmlns="http://www.w3.org/2000/svg" viewBox="0 0 2000 2000"><defs><style>.cls-1{fill:#f04b23;}.cls-2{fill:#fff;}</style></defs><rect class="cls-1" width="2000" height="2000"/><polygon class="cls-2" points="1274.66 1487.57 1394.19 1103.62 1143.86 1295.59 1000 788.9 856.14 1295.59 605.81 1103.62 725.34 1487.57 380.11 1198.99 579.4 883.09 545.41 404.25 891.92 728.5 1000 709.43 1108.08 728.5 1454.59 404.25 1420.6 883.09 1619.89 1198.99 1274.66 1487.57"/><polygon class="cls-2" points="909.13 1557.04 919.44 1519.53 949.81 1595.75 909.13 1557.04"/><polygon class="cls-2" points="1000 1226.41 1080.56 1519.53 919.44 1519.53 1000 1226.41"/><polygon class="cls-2" points="1050.19 1595.75 1080.56 1519.53 1090.88 1557.04 1050.19 1595.75"/><polygon class="cls-2" points="973.42 1095.2 973.43 1095.2 973.42 1095.21 973.42 1095.2"/><polygon class="cls-2" points="1026.58 1095.2 1026.58 1095.21 1026.57 1095.2 1026.58 1095.2"/></svg>