<svg id="Layer_1" data-name="Layer 1" xmlns="http://www.w3.org/2000/svg" viewBox="0 0 2000 2000"><defs><style>.cls-1{fill:#fff;}.cls-2,.cls-3{fill:#f04b23;}.cls-3{font-size:113.18px;font-family:AkiraExpanded-SuperBold, Akira Expanded;font-weight:700;}.cls-4{letter-spacing:0.12em;}.cls-5{letter-spacing:0.07em;}.cls-6{letter-spacing:0em;}</style></defs><rect class="cls-1" y="-2000" width="2000" height="2000"/><polygon class="cls-2" points="1129.69 1095.42 1186.13 914.13 1067.93 1004.77 1000 765.53 932.07 1004.77 813.88 914.13 870.31 1095.42 707.3 959.16 801.41 810 785.36 583.91 948.97 737.01 1000 728 1051.03 737.01 1214.64 583.91 1198.59 810 1292.7 959.16 1129.69 1095.42"/><polygon class="cls-2" points="957.09 1128.22 961.96 1110.51 976.3 1146.5 957.09 1128.22"/><polygon class="cls-2" points="1000 972.11 1038.04 1110.51 961.96 1110.51 1000 972.11"/><polygon class="cls-2" points="1023.7 1146.5 1038.04 1110.51 1042.91 1128.22 1023.7 1146.5"/><polygon class="cls-2" points="987.45 910.16 987.46 910.16 987.45 910.16 987.45 910.16"/><polygon class="cls-2" points="1012.55 910.16 1012.55 910.16 1012.54 910.16 1012.55 910.16"/><text class="cls-3" transform="translate(793.2 1342.11)">w<tspan class="cls-4" x="168.89" y="0">i</tspan><tspan class="cls-5" x="213.21" y="0">l</tspan><tspan class="cls-6" x="309.92" y="0">d</tspan></text></svg>